<?xml version="1.0" standalone="no"?>
<svg xmlns="http://www.w3.org/2000/svg" viewBox="0 0 84.696 23.418" width="84.696" height="23.418"><g fill="#ff5576" color="#ff5576" transform="translate(0, 0) scale(2.1696843)"><svg width="13.366" height="10.793" x="0.0" y="0.0" viewBox="0 0 13.366 10.793"><path d="M12.793,10.181l-0.807-0.794c-0.964-0.794-0.847-1.927-0.859-2.044c-0.013-0.116-0.013-0.585,0.026-0.741  S11.14,6.276,11.14,6.276c0.287-1.172,1.211-0.847,1.211-0.847c0.377,0.039,0.391-0.325,0.391-0.325  c0.26-0.13,0.195-0.403,0.195-0.403L12.48,4.219c-0.182-0.481-0.702-0.599-0.702-0.599c0.077-0.481-0.17-0.781-0.17-0.781  c-0.039,0.143-0.585,0.719-0.625,0.729c-0.638,0.156-0.43,0.261-0.833,0.547s-1.263,0.638-1.64,0.43  C8.133,4.336,4.996,4.063,3.643,4.063c-0.401,0-0.714,0.083-0.956,0.199C2.465,4.092,2.179,3.725,1.968,3.226  C1.657,2.491,1.613,1.753,1.852,1.252c0.128-0.27,0.274-0.423,0.435-0.455c0.239-0.047,0.535,0.161,0.62,0.238  c0.16,0.147,0.409,0.137,0.557-0.023c0.148-0.16,0.139-0.41-0.021-0.558C3.38,0.396,2.812-0.108,2.139,0.021  C1.717,0.102,1.38,0.402,1.138,0.913C0.799,1.625,0.836,2.58,1.24,3.534c0.182,0.43,0.472,0.914,0.827,1.24  C1.974,4.904,1.937,5,1.937,5C1.82,5.273,1.495,5.885,1.612,6.445c0.117,0.56-0.234,0.82-0.299,0.885  C1.247,7.396,0.57,7.799,0.57,7.799l-0.56,1.979c-0.091,0.378,0.417,0.599,0.417,0.599c0.182-0.025,0.195-0.624,0.195-0.624  L1.065,8.71l1.666-0.611c0,0,0,0.703-0.026,0.833S2.614,9.283,2.614,9.283c0.065,0.455,1.185,1.51,1.185,1.51h0.846V10.52  c-0.065-0.3-0.495-0.156-0.495-0.156l-0.625-0.95c0.664-0.521,0.937-1.393,0.937-1.393c0.312,0.26,1.809-0.222,1.809-0.222  L7.17,7.89L6.91,9.985c-0.078,0.508,0.039,0.69,0.039,0.69h0.403c0.287,0,0.482,0.039,0.482-0.261c0-0.299-0.403-0.247-0.403-0.247  l0.988-1.952c0.938-0.573,1.536,0.26,1.536,0.26l0.053,0.3c0.364,0.533,2.369,1.9,2.369,1.9h0.989v-0.3  C13.196,10.063,12.793,10.181,12.793,10.181z"></path></svg></g><line x1="41" y1="1" x2="41" y2="22.418" stroke="#ecf0f1" stroke-linecap="round"></line><path fill="#ecf0f1" fill-rule="nonzero" d="M7.68 19.61L0 19.61L0 0.17L2.71 0.17L2.71 17.66L7.68 17.66L7.68 19.61ZM13.61 19.82L13.61 19.82Q12.29 19.82 11.34 19.26Q10.39 18.70 9.90 17.71Q9.41 16.73 9.41 15.46L9.41 15.46Q9.41 13.61 10.24 12.25Q11.06 10.90 12.24 9.84L12.24 9.84Q11.81 8.98 11.32 8.10Q10.82 7.22 10.48 6.28Q10.13 5.33 10.13 4.30L10.13 4.30Q10.13 3 10.63 2.04Q11.14 1.08 12.07 0.54Q13.01 0 14.28 0L14.28 0Q15.46 0 16.38 0.43Q17.30 0.86 17.86 1.67Q18.41 2.47 18.41 3.60L18.41 3.60Q18.41 4.87 17.82 6.04Q17.23 7.20 16.39 8.20Q15.55 9.19 14.76 9.96L14.76 9.96L17.69 14.57Q17.95 14.06 18.13 13.43Q18.31 12.79 18.44 12.07Q18.58 11.35 18.65 10.68L18.65 10.68L21.19 10.68Q21.19 11.62 20.92 12.65Q20.64 13.68 20.21 14.60Q19.78 15.53 19.32 16.18L19.32 16.18Q19.63 16.56 20.14 16.86Q20.64 17.16 21.22 17.16L21.22 17.16L21.22 19.80Q21.12 19.80 21.04 19.80Q20.95 19.80 20.88 19.80L20.88 19.80Q20.18 19.78 19.63 19.48Q19.08 19.18 18.64 18.74Q18.19 18.31 17.78 17.93L17.78 17.93Q17.14 18.74 16.09 19.28Q15.05 19.82 13.61 19.82ZM13.61 17.69L13.61 17.69Q14.52 17.69 15.14 17.24Q15.77 16.80 16.22 16.25L16.22 16.25L13.25 11.66Q12.67 12.41 12.32 13.40Q11.98 14.40 11.98 15.46L11.98 15.46Q11.98 16.01 12.12 16.52Q12.26 17.04 12.62 17.36Q12.98 17.69 13.61 17.69ZM13.87 8.57L13.87 8.57Q14.38 7.97 14.82 7.15Q15.26 6.34 15.55 5.41Q15.84 4.49 15.84 3.60L15.84 3.60Q15.84 2.90 15.41 2.51Q14.98 2.11 14.28 2.11L14.28 2.11Q13.42 2.11 13.06 2.78Q12.70 3.46 12.70 4.30L12.70 4.30Q12.70 5.40 13.07 6.49Q13.44 7.58 13.87 8.57ZM26.78 19.61L24.07 19.61L24.07 0.17L28.90 0.17Q30.65 0.17 31.69 0.80Q32.74 1.44 33.22 2.64Q33.70 3.84 33.70 5.54L33.70 5.54Q33.70 7.08 33.16 8.21Q32.62 9.34 31.56 9.95Q30.50 10.56 28.92 10.56L28.92 10.56L26.78 10.56L26.78 19.61ZM26.78 2.11L26.78 8.62L28.03 8.62Q29.21 8.62 29.88 8.35Q30.55 8.09 30.84 7.43Q31.13 6.77 31.13 5.57L31.13 5.57Q31.13 4.18 30.92 3.43Q30.72 2.69 30.07 2.40Q29.42 2.11 28.06 2.11L28.06 2.11L26.78 2.11Z" transform="translate(51, 1.905)"></path></svg>